<?xml version="1.0" encoding="UTF-8" standalone="no"?>
<svg
   xmlns:dc="http://purl.org/dc/elements/1.1/"
   xmlns:cc="http://creativecommons.org/ns#"
   xmlns:rdf="http://www.w3.org/1999/02/22-rdf-syntax-ns#"
   xmlns:svg="http://www.w3.org/2000/svg"
   xmlns="http://www.w3.org/2000/svg"
   xmlns:sodipodi="http://sodipodi.sourceforge.net/DTD/sodipodi-0.dtd"
   xmlns:inkscape="http://www.inkscape.org/namespaces/inkscape"
   viewBox="0 0 19.318483 25.818068"
   version="1.1"
   id="svg111"
   sodipodi:docname="drop+.svg"
   width="19.318483"
   height="25.818068"
   inkscape:version="1.0.2 (e86c8708, 2021-01-15)">
  <metadata
     id="metadata117">
    <rdf:RDF>
      <cc:Work
         rdf:about="">
        <dc:format>image/svg+xml</dc:format>
        <dc:type
           rdf:resource="http://purl.org/dc/dcmitype/StillImage" />
        <dc:title></dc:title>
      </cc:Work>
    </rdf:RDF>
  </metadata>
  <defs
     id="defs115" />
  <sodipodi:namedview
     pagecolor="#ffffff"
     bordercolor="#666666"
     borderopacity="1"
     objecttolerance="10"
     gridtolerance="10"
     guidetolerance="10"
     inkscape:pageopacity="0"
     inkscape:pageshadow="2"
     inkscape:window-width="1058"
     inkscape:window-height="754"
     id="namedview113"
     showgrid="false"
     inkscape:zoom="11.85996"
     inkscape:cx="4"
     inkscape:cy="15.636134"
     inkscape:window-x="0"
     inkscape:window-y="23"
     inkscape:window-maximized="0"
     inkscape:current-layer="svg111" />
  <path
     d="m 8,5.3890671 c 3.658,5.4369999 6,9.2229999 6,12.5029999 0,3.268 -2.691,5.926 -6,5.926 -3.309,0 -6,-2.658 -6,-5.925 0,-3.281 2.341,-7.067 6,-12.5039999 z m 0,-3.571 c -4.87,7.197 -8,11.6989999 -8,16.0749999 0,4.378 3.579,7.925 8,7.925 4.421,0 8,-3.547 8,-7.925 0,-4.376 -3.13,-8.8779999 -8,-16.0749999 z"
     id="path109" />
  <path
     d="m 18.567483,3.178 h -2.425 V 0.7500001 C 16.142483,0.336 15.806483,0 15.392483,0 c -0.414,0 -0.75,0.336 -0.75,0.7500001 V 3.178 h -2.425 c -0.414,0 -0.75,0.335 -0.75,0.75 0,0.415 0.336,0.75 0.75,0.75 h 2.426 v 2.424 c 0,0.414 0.336,0.75 0.75,0.75 0.414,0 0.75,-0.336 0.75,-0.75 V 4.678 h 2.425 c 0.415,0 0.75,-0.337 0.75,-0.75 0,-0.413 -0.336,-0.75 -0.75,-0.75 z"
     id="path149"
     sodipodi:nodetypes="ccssscssscssscsssc" />
</svg>
