<?xml version="1.0" encoding="UTF-8"?>
<svg width="23.796" height="20.34" className="icon" version="1.1" viewBox="0 0 23.796 20.34" xmlns="http://www.w3.org/2000/svg" xmlns:cc="http://creativecommons.org/ns#" xmlns:dc="http://purl.org/dc/elements/1.1/" xmlns:rdf="http://www.w3.org/1999/02/22-rdf-syntax-ns#" xmlns:xlink="http://www.w3.org/1999/xlink">
 <metadata>
  <rdf:RDF>
   <cc:Work rdf:about="">
    <dc:format>image/svg+xml</dc:format>
    <dc:type rdf:resource="http://purl.org/dc/dcmitype/StillImage"/>
    <dc:title/>
   </cc:Work>
  </rdf:RDF>
 </metadata>
 <defs>
  <clipPath id="clipPath1021">
   <use width="100%" height="100%" xlink:href="#g1017"/>
  </clipPath>
 </defs>
 <g transform="translate(-.10141 -1.656)">
  <path d="m12 11.816c1.355 0 2.872-0.15 3.84-1.256 0.814-0.93 1.078-2.368 0.806-4.392-0.38-2.825-2.117-4.512-4.646-4.512s-4.266 1.687-4.646 4.514c-0.272 2.022-8e-3 3.46 0.806 4.39 0.968 1.107 2.485 1.256 3.84 1.256zm-3.16-5.448c0.162-1.2 0.787-3.212 3.16-3.212s2.998 2.013 3.16 3.212c0.207 1.55 0.057 2.627-0.45 3.205-0.455 0.52-1.266 0.743-2.71 0.743s-2.255-0.223-2.71-0.743c-0.507-0.578-0.657-1.656-0.45-3.205zm11.44 12.868c-0.877-3.526-4.282-5.99-8.28-5.99s-7.403 2.464-8.28 5.99c-0.172 0.692-0.028 1.4 0.395 1.94 0.408 0.52 1.04 0.82 1.733 0.82h12.304c0.693 0 1.325-0.3 1.733-0.82 0.424-0.54 0.567-1.247 0.394-1.94zm-1.576 1.016c-0.126 0.16-0.316 0.246-0.552 0.246h-12.304c-0.235 0-0.426-0.085-0.552-0.246-0.137-0.174-0.18-0.412-0.12-0.654 0.71-2.855 3.517-4.85 6.824-4.85s6.114 1.994 6.824 4.85c0.06 0.242 0.017 0.48-0.12 0.654z"/>
 </g>
 <g transform="translate(-2.9382 -1.957)" clip-path="url(#clipPath1021)">
  <g id="g1017">
   <g transform="matrix(.84434 0 0 .84434 9.5518 1.123)">
    <path transform="matrix(1.1844 0 0 1.1844 -11.313 -1.3301)" d="m9.9902 2.5215c-2.1353 0-3.603 1.4236-3.9238 3.8105-0.22966 1.7073-0.00565 2.9218 0.68164 3.707 0.81732 0.93469 2.0981 1.0605 3.2422 1.0605 0.8658 0 1.808-0.07365 2.5703-0.51367l-1.2949-0.46484-0.07422-0.39258c-0.33137 0.06451-0.71363 0.10547-1.2012 0.10547-1.2192 0-1.9049-0.18985-2.2891-0.62891-0.42808-0.48803-0.55368-1.3972-0.37891-2.7051 0.13678-1.0132 0.66435-2.7129 2.668-2.7129 0.79301 0 1.3482 0.27158 1.7461 0.65625l0.42578-0.85156 0.37695-0.13281c-0.66335-0.60261-1.5258-0.9375-2.5488-0.9375zm9.6934 0c-1.0352 0-1.9079 0.34026-2.5742 0.95703l0.60352 0.19531 0.25391 0.73633c0.39576-0.36779 0.94528-0.62305 1.7168-0.62305 2.0036 0 2.5312 1.7005 2.668 2.7129 0.17478 1.3087 0.04917 2.217-0.37891 2.7051-0.38418 0.43906-1.0698 0.62891-2.2891 0.62891-0.5322 0-0.94717-0.043809-1.2949-0.12109l-0.9707 1.0215c0.70107 0.30503 1.5114 0.36523 2.2656 0.36523 1.1441 0 2.4249-0.1267 3.2422-1.0605 0.68729-0.78524 0.9113-2 0.68164-3.709-0.32085-2.3853-1.7885-3.8086-3.9238-3.8086zm-9.6934 9.7852c-3.3757 0-6.2517 2.0814-6.9922 5.0586-0.14523 0.58428-0.023172 1.1808 0.33398 1.6367 0.34449 0.43906 0.87776 0.69336 1.4629 0.69336h2.6289l0.23047-1.2656h-2.8594c-0.19842 0-0.35846-0.07109-0.46484-0.20703-0.11567-0.14692-0.15222-0.3484-0.10156-0.55273 0.59948-2.4106 2.9695-4.0938 5.7617-4.0938 1.2652 0 2.432 0.35849 3.3984 0.96094l1.2227-0.33398 1.5566 0.4043c0.98705-0.64749 2.2002-1.0312 3.5156-1.0312 2.7922 0 5.1622 1.6823 5.7617 4.0938 0.05066 0.20433 0.01411 0.40582-0.10156 0.55273-0.10639 0.1351-0.26558 0.20703-0.46484 0.20703h-2.9844l0.47266 0.50781-0.12695 0.75781h2.6387c0.58513 0 1.1184-0.2543 1.4629-0.69336 0.358-0.45594 0.4781-1.0516 0.33203-1.6367h2e-3c-0.74049-2.9771-3.6165-5.0586-6.9922-5.0586-1.8663 0-3.5635 0.65281-4.8477 1.7246-1.2841-1.0716-2.9796-1.7246-4.8457-1.7246z" stroke-width=".84434"/>
   </g>
  </g>
 </g>
</svg>
