<?xml version="1.0" encoding="UTF-8"?>
<svg enable-background="new 0 0 480.1 480.1" version="1.1" viewBox="0 0 480.1 480.1" xml:space="preserve" xmlns="http://www.w3.org/2000/svg" xmlns:cc="http://creativecommons.org/ns#" xmlns:dc="http://purl.org/dc/elements/1.1/" xmlns:rdf="http://www.w3.org/1999/02/22-rdf-syntax-ns#"><metadata><rdf:RDF><cc:Work rdf:about=""><dc:format>image/svg+xml</dc:format><dc:type rdf:resource="http://purl.org/dc/dcmitype/StillImage"/><dc:title/></cc:Work></rdf:RDF></metadata>

	
		<path d="m240.14 0.05c-96.05-0.014-182.86 57.239-220.66 145.54l-2.992 0.992 1.16 3.48c-49.776 122.77 9.393 262.64 132.16 312.42 28.673 11.626 59.324 17.594 90.265 17.577 132.55 0.02 240.02-107.42 240.04-239.96s-107.42-240.02-239.96-240.04zm188.25 361-12.324-12.316v-28.688c0.014-1.238-0.26-2.462-0.8-3.576l-31.2-62.312v-30.112c0-2.674-1.335-5.172-3.56-6.656l-24-16c-1.881-1.256-4.206-1.657-6.4-1.104l-29.392 7.344-49.368-21.184-6.792-47.584 18.824-18.816h40.408l13.6 20.44c1.228 1.838 3.163 3.087 5.344 3.448l48 8c1.286 0.216 2.604 0.111 3.84-0.304l44.208-14.736c37.079 71.155 33.113 156.74-10.388 224.16zm-32.996-282.17-13.008 8.672-36.264-7.256-23.528-7.832c-1.44-0.489-2.99-0.551-4.464-0.176l-29.744 7.432-13.04-4.344 9.664-19.328h27.056c1.241 1e-3 2.465-0.286 3.576-0.84l27.68-13.84c19.062 9.95 36.598 22.582 52.072 37.512zm-242.95-44.968 19.2 12.8c0.944 0.628 2.01 1.048 3.128 1.232l38.768 6.464-3.784 11.32-20.2 6.744c-1.809 0.602-3.344 1.83-4.328 3.464l-22.976 38.288-36.904 22.144-54.4 7.768c-3.943 0.557-6.875 3.93-6.88 7.912v24c0 2.122 0.844 4.156 2.344 5.656l13.656 13.656v13.744l-33.28-22.192-12.072-36.216c22.968-52.48 65.065-94.24 117.73-116.78zm-22.776 262.3-36.16-7.24-13.44-26.808v-18.8l29.808-29.808 11.032 22.072c1.355 2.712 4.128 4.425 7.16 4.424h51.472l21.672 36.12c1.446 2.407 4.048 3.879 6.856 3.88h22.24l-5.6 28.056-30.288 30.288c-1.503 1.499-2.349 3.533-2.352 5.656v20l-28.8 21.6c-2.014 1.511-3.2 3.882-3.2 6.4v28.896l-9.952-3.296-14.048-35.136v-78.464c1e-3 -3.802-2.675-7.08-6.4-7.84zm-24.048 122.98c-75.429-56.589-107.33-154.36-79.784-244.55l6.648 19.936c0.56 1.687 1.666 3.14 3.144 4.128l39.88 26.584-9.096 9.104c-1.5 1.5-2.344 3.534-2.344 5.656v24c-1e-3 1.241 0.286 2.465 0.84 3.576l16 32c1.108 2.21 3.175 3.784 5.6 4.264l33.6 6.712v73.448c-1e-3 1.016 0.192 2.024 0.568 2.968l16 40c0.876 2.185 2.67 3.874 4.904 4.616l24 8c0.802 0.272 1.642 0.412 2.488 0.416 4.418 0 8-3.582 8-8v-36l28.8-21.6c2.014-1.511 3.2-3.882 3.2-6.4v-20.688l29.656-29.656c1.115-1.117 1.875-2.54 2.184-4.088l8-40c0.866-4.333-1.944-8.547-6.277-9.413-0.515-0.103-1.038-0.155-1.563-0.155h-27.472l-21.672-36.12c-1.446-2.407-4.048-3.879-6.856-3.88h-51.056l-13.744-27.576c-1.151-2.302-3.339-3.91-5.88-4.32-2.54-0.439-5.133 0.399-6.936 2.24l-10.384 10.344v-12.688c0-2.122-0.844-4.156-2.344-5.656l-13.656-13.656v-13.752l49.136-7.016c1.055-0.153 2.07-0.515 2.984-1.064l40-24c1.122-0.674 2.062-1.614 2.736-2.736l22.48-37.464 21.192-7.072c2.393-0.785 4.271-2.662 5.056-5.056l8-24c1.386-4.195-0.891-8.72-5.086-10.106-0.387-0.128-0.784-0.226-1.186-0.294l-46.304-7.72-8.136-5.424c50.343-16.386 104.87-14.358 153.86 5.72l-14.616 7.296h-30.112c-3.047-0.017-5.838 1.699-7.2 4.424l-16 32c-1.971 3.954-0.364 8.758 3.59 10.729 0.337 0.168 0.685 0.312 1.042 0.431l24 8c1.44 0.489 2.99 0.551 4.464 0.176l29.744-7.432 21.792 7.256c0.312 0.112 0.633 0.198 0.96 0.256l40 8c2.08 0.424 4.244-2e-3 6.008-1.184l18.208-12.144c8.961 9.981 17.014 20.741 24.064 32.152l-39.36 13.12-42.616-7.104-14.08-21.12c-1.476-2.213-3.956-3.547-6.616-3.56h-48c-2.122 0-4.156 0.844-5.656 2.344l-24 24c-1.782 1.781-2.621 4.298-2.264 6.792l8 56c0.403 2.769 2.223 5.126 4.8 6.216l56 24c1.604 0.695 3.394 0.838 5.088 0.408l28.568-7.144 17.464 11.664v27.72c-0.014 1.238 0.26 2.462 0.8 3.576l31.2 62.312v30.112c0 2.122 0.844 4.156 2.344 5.656l16.736 16.744c-74.223 98.933-214.6 118.96-313.53 44.741z"/>
	
















</svg>
